<svg width="85" height="85" viewBox="0 0 85 85" fill="none" xmlns="http://www.w3.org/2000/svg">
<path d="M42.5 85C65.9721 85 85 65.9721 85 42.5C85 19.0279 65.9721 0 42.5 0C19.0279 0 0 19.0279 0 42.5C0 65.9721 19.0279 85 42.5 85Z" fill="#FDECEB"/>
<path fill-rule="evenodd" clip-rule="evenodd" d="M44.551 36.237L55.929 29.669C56.87 29.119 57.189 29.509 57.171 30.734V43.55C57.189 43.8065 57.1313 44.0626 57.0051 44.2866C56.8789 44.5106 56.6897 44.6926 56.461 44.81L49.84 48.626L44.515 51.715C44.4429 51.7474 44.3639 51.7614 44.2851 51.7558C44.2062 51.7503 44.13 51.7253 44.0632 51.6831C43.9963 51.6409 43.941 51.5829 43.902 51.5141C43.8631 51.4454 43.8418 51.368 43.84 51.289V37.589C43.8504 37.325 43.9196 37.0665 44.0426 36.8326C44.1656 36.5987 44.3393 36.3953 44.551 36.237Z" fill="#EE3F36"/>
<path fill-rule="evenodd" clip-rule="evenodd" d="M41.1969 37.586C41.18 37.3181 41.1026 37.0575 40.9704 36.8238C40.8383 36.5902 40.6548 36.3895 40.4339 36.237L29.0729 29.673C28.1139 29.123 27.8129 29.513 27.8299 30.738V43.554C27.8072 43.8112 27.8628 44.0692 27.9895 44.2941C28.1163 44.519 28.3082 44.7003 28.5399 44.814L35.1609 48.63L40.4859 51.719C40.5587 51.7552 40.6395 51.7722 40.7207 51.7685C40.8019 51.7648 40.8808 51.7405 40.95 51.6979C41.0193 51.6553 41.0765 51.5957 41.1163 51.5249C41.1562 51.4541 41.1774 51.3743 41.1779 51.293L41.1969 37.586Z" fill="#EE3F36"/>
<path fill-rule="evenodd" clip-rule="evenodd" d="M29.9959 27.221L41.5519 33.895C41.8332 34.0237 42.139 34.0903 42.4484 34.0903C42.7578 34.0903 43.0635 34.0237 43.3449 33.895L54.8829 27.221C54.9719 27.1678 55.0457 27.0923 55.0969 27.0021C55.1481 26.9118 55.175 26.8098 55.175 26.706C55.175 26.6022 55.1481 26.5002 55.0969 26.41C55.0457 26.3197 54.9719 26.2443 54.8829 26.191L49.7349 23.209L44.1429 19.961C43.5931 19.681 42.9849 19.535 42.3679 19.535C41.7509 19.535 41.1427 19.681 40.5929 19.961L35.2679 23.174L29.9429 26.192C29.8629 26.2558 29.8 26.3384 29.7596 26.4324C29.7192 26.5264 29.7027 26.6289 29.7115 26.7309C29.7203 26.8328 29.7542 26.9309 29.8101 27.0166C29.866 27.1023 29.9422 27.1729 30.0319 27.222L29.9959 27.221Z" fill="#EE3F36"/>
<path d="M41.7819 54.45C41.7654 54.3461 41.7716 54.2398 41.8002 54.1385C41.8287 54.0372 41.8789 53.9432 41.9472 53.8632C42.0156 53.7831 42.1005 53.7189 42.1961 53.6748C42.2917 53.6307 42.3957 53.6079 42.5009 53.6079C42.6062 53.6079 42.7101 53.6307 42.8057 53.6748C42.9013 53.7189 42.9862 53.7831 43.0546 53.8632C43.1229 53.9432 43.1731 54.0372 43.2016 54.1385C43.2302 54.2398 43.2364 54.3461 43.2199 54.45V62.189C43.2364 62.293 43.2302 62.3993 43.2016 62.5006C43.1731 62.6019 43.1229 62.6958 43.0546 62.7758C42.9862 62.8559 42.9013 62.9202 42.8057 62.9642C42.7101 63.0083 42.6062 63.0311 42.5009 63.0311C42.3957 63.0311 42.2917 63.0083 42.1961 62.9642C42.1005 62.9202 42.0156 62.8559 41.9472 62.7758C41.8789 62.6958 41.8287 62.6019 41.8002 62.5006C41.7716 62.3993 41.7654 62.293 41.7819 62.189V54.45ZM47.9239 58.178C47.9511 58.0069 48.0384 57.851 48.1702 57.7385C48.302 57.626 48.4696 57.5641 48.6429 57.5641C48.8162 57.5641 48.9838 57.626 49.1156 57.7385C49.2474 57.851 49.3347 58.0069 49.3619 58.178V64.852C49.3347 65.0232 49.2474 65.179 49.1156 65.2915C48.9838 65.4041 48.8162 65.4659 48.6429 65.4659C48.4696 65.4659 48.302 65.4041 48.1702 65.2915C48.0384 65.179 47.9511 65.0232 47.9239 64.852V58.178ZM35.6399 58.178C35.6671 58.0069 35.7544 57.851 35.8862 57.7385C36.018 57.626 36.1856 57.5641 36.3589 57.5641C36.5322 57.5641 36.6998 57.626 36.8316 57.7385C36.9634 57.851 37.0507 58.0069 37.0779 58.178V64.852C37.0507 65.0232 36.9634 65.179 36.8316 65.2915C36.6998 65.4041 36.5322 65.4659 36.3589 65.4659C36.1856 65.4659 36.018 65.4041 35.8862 65.2915C35.7544 65.179 35.6671 65.0232 35.6399 64.852V58.178Z" fill="#EE3F36"/>
</svg>
