<svg width="184" height="56" viewBox="0 0 184 56" fill="none" xmlns="http://www.w3.org/2000/svg">
<g clip-path="url(#clip0_4_30)">
<path fill-rule="evenodd" clip-rule="evenodd" d="M20.3032 20.3224L34.1188 12.3317C35.2611 11.6622 35.649 12.1373 35.6275 13.6275V29.2202C35.6493 29.5323 35.5793 29.844 35.4261 30.1165C35.2728 30.3891 35.0431 30.6106 34.7654 30.7536L26.726 35.3968L20.26 39.1547C20.1725 39.1938 20.0767 39.2107 19.9811 39.2038C19.8855 39.197 19.7931 39.1665 19.712 39.1152C19.631 39.0639 19.5638 38.9934 19.5166 38.9099C19.4693 38.8263 19.4433 38.7323 19.441 38.6363V21.9638C19.454 21.6432 19.5381 21.3295 19.6872 21.0456C19.8364 20.7617 20.0468 20.5147 20.3032 20.3224Z" fill="#EE3F36"/>
<path fill-rule="evenodd" clip-rule="evenodd" d="M16.2296 21.9638C16.2091 21.6378 16.115 21.3207 15.9545 21.0364C15.7939 20.7521 15.5711 20.508 15.3028 20.3224L1.50878 12.3317C0.34491 11.6622 -0.0215215 12.1373 3.17083e-05 13.6275V29.2202C-0.0276766 29.5331 0.0398435 29.8472 0.19374 30.1209C0.347636 30.3946 0.580677 30.6152 0.862148 30.7536L8.90153 35.3968L15.3675 39.1547C15.4559 39.1986 15.554 39.2193 15.6526 39.2148C15.7512 39.2103 15.8471 39.1808 15.9311 39.1289C16.0152 39.0771 16.0847 39.0047 16.1332 38.9185C16.1816 38.8323 16.2074 38.7352 16.208 38.6363L16.2296 21.9638Z" fill="#EE3F36"/>
<path fill-rule="evenodd" clip-rule="evenodd" d="M2.62952 9.35135L16.6607 17.4717C16.9933 17.6432 17.3646 17.7251 17.7384 17.7092C18.1193 17.7289 18.4986 17.6469 18.8375 17.4717L32.8471 9.35135C32.9541 9.28573 33.0426 9.19365 33.1039 9.08399C33.1652 8.97433 33.1974 8.85073 33.1974 8.72503C33.1974 8.59932 33.1652 8.47572 33.1039 8.36606C33.0426 8.2564 32.9541 8.16436 32.8471 8.09874L26.5967 4.47049L19.8074 0.518342C19.1464 0.160277 18.4034 -0.0184149 17.6521 1.20148e-05C16.9009 -0.0184149 16.1579 0.160277 15.4968 0.518342L9.03083 4.42732L2.56486 8.09874C2.46795 8.17642 2.3917 8.27685 2.3428 8.39114C2.2939 8.50542 2.27387 8.63001 2.28452 8.75389C2.29518 8.87778 2.33621 8.99715 2.40391 9.10136C2.4716 9.20557 2.56386 9.29143 2.6726 9.35135H2.62952Z" fill="#EE3F36"/>
<path d="M16.9409 42.4805C16.921 42.3541 16.9286 42.2249 16.9634 42.1018C16.9981 41.9787 17.059 41.8646 17.142 41.7673C17.225 41.6701 17.328 41.592 17.4439 41.5385C17.5599 41.4849 17.6861 41.4572 17.8138 41.4572C17.9415 41.4572 18.0676 41.4849 18.1836 41.5385C18.2995 41.592 18.4025 41.6701 18.4855 41.7673C18.5684 41.8646 18.6294 41.9787 18.6641 42.1018C18.6988 42.2249 18.7066 42.3541 18.6867 42.4805V51.8967C18.7066 52.023 18.6988 52.1522 18.6641 52.2754C18.6294 52.3985 18.5684 52.5126 18.4855 52.6098C18.4025 52.7071 18.2995 52.7852 18.1836 52.8387C18.0676 52.8922 17.9415 52.92 17.8138 52.92C17.6861 52.92 17.5599 52.8922 17.4439 52.8387C17.328 52.7852 17.225 52.7071 17.142 52.6098C17.059 52.5126 16.9981 52.3985 16.9634 52.2754C16.9286 52.1522 16.921 52.023 16.9409 51.8967V42.4805ZM24.3983 47.0158C24.431 46.8075 24.537 46.6177 24.697 46.4806C24.857 46.3435 25.0606 46.2682 25.2712 46.2682C25.4817 46.2682 25.6853 46.3435 25.8453 46.4806C26.0054 46.6177 26.1113 46.8075 26.1441 47.0158V55.1361C26.1113 55.3445 26.0054 55.5343 25.8453 55.6714C25.6853 55.8084 25.4817 55.8837 25.2712 55.8837C25.0606 55.8837 24.857 55.8084 24.697 55.6714C24.537 55.5343 24.431 55.3445 24.3983 55.1361V47.0158ZM9.4834 47.0158C9.51618 46.8075 9.62212 46.6177 9.78215 46.4806C9.94218 46.3435 10.1458 46.2682 10.3563 46.2682C10.5668 46.2682 10.7704 46.3435 10.9305 46.4806C11.0905 46.6177 11.1964 46.8075 11.2292 47.0158V55.1361C11.1964 55.3445 11.0905 55.5343 10.9305 55.6714C10.7704 55.8084 10.5668 55.8837 10.3563 55.8837C10.1458 55.8837 9.94218 55.8084 9.78215 55.6714C9.62212 55.5343 9.51618 55.3445 9.4834 55.1361V47.0158Z" fill="#EE3F36"/>
<path d="M53.9693 40.472C52.6134 39.9503 51.3696 39.1732 50.3053 38.1828C50.0839 38.0207 49.9028 37.8098 49.7757 37.5664C49.6486 37.323 49.5791 37.0536 49.5724 36.779C49.585 36.3585 49.7542 35.9579 50.0466 35.656C50.1941 35.5007 50.3712 35.3766 50.5674 35.2913C50.7637 35.206 50.975 35.1611 51.1889 35.1593C51.5576 35.1531 51.9138 35.2927 52.1804 35.548C53.0074 36.3362 53.9717 36.9657 55.0254 37.4053C56.073 37.8267 57.1945 38.0323 58.3231 38.01C59.6161 38.0536 60.8925 37.7076 61.9871 37.0166C62.4298 36.7632 62.7993 36.3992 63.0599 35.9602C63.3205 35.5212 63.4633 35.0221 63.4743 34.5114C63.4803 33.9591 63.3472 33.4143 63.0872 32.9273C62.8273 32.4403 62.4489 32.0269 61.9871 31.7254C60.6145 30.9264 59.1112 30.3779 57.5472 30.1057C55.5563 29.7955 53.6785 28.9774 52.0942 27.73C51.4557 27.1582 50.9538 26.4498 50.6254 25.6572C50.2971 24.8647 50.1509 24.0084 50.1975 23.1516C50.166 21.8819 50.5356 20.6347 51.2536 19.5881C52.0044 18.5476 53.0258 17.7333 54.2064 17.2341C55.5719 16.6672 57.0392 16.3879 58.517 16.4134C59.8842 16.3968 61.2429 16.631 62.526 17.1045C63.6625 17.486 64.7055 18.1043 65.5865 18.9186C65.8177 19.0941 66.0073 19.3187 66.1415 19.5764C66.2757 19.8341 66.3511 20.1184 66.3624 20.4088C66.3624 20.8269 66.1967 21.2279 65.9016 21.5236C65.6066 21.8192 65.2063 21.9853 64.789 21.9853C64.6474 21.9944 64.5054 21.9741 64.3719 21.9258C64.2385 21.8775 64.1163 21.8022 64.0131 21.7046C63.2951 21.0411 62.4525 20.5272 61.5345 20.1928C60.5758 19.7995 59.5528 19.5872 58.517 19.5665C57.2284 19.51 55.9524 19.8409 54.853 20.5168C54.4316 20.7829 54.0854 21.1531 53.8476 21.5917C53.6099 22.0304 53.4885 22.5229 53.4952 23.022C53.4728 23.5327 53.5868 24.0401 53.8255 24.4919C54.0642 24.9436 54.4189 25.3234 54.853 25.592C56.0986 26.3267 57.4625 26.8383 58.8835 27.1037C60.3648 27.4116 61.8096 27.8749 63.1941 28.4859C64.2629 28.932 65.1773 29.683 65.8236 30.6456C66.4906 31.7496 66.8133 33.028 66.7504 34.317C66.777 35.5892 66.383 36.8345 65.6296 37.8588C64.8543 38.9264 63.8038 39.7625 62.5906 40.2777C61.2655 40.8573 59.8336 41.1517 58.3877 41.1415C56.887 41.1815 55.3911 40.9548 53.9693 40.472Z" fill="#EE3F36"/>
<path d="M84.1869 30.0625V39.241C84.1936 39.5691 84.1019 39.8917 83.9237 40.1671C83.7456 40.4424 83.4891 40.658 83.1875 40.7858C82.8859 40.9137 82.5529 40.948 82.2316 40.8844C81.9103 40.8208 81.6154 40.6621 81.385 40.4288C81.0773 40.1108 80.9069 39.684 80.9109 39.241V30.0625C80.9109 27.0821 79.6608 25.5919 77.1391 25.5919C76.521 25.5745 75.9055 25.6801 75.3284 25.9025C74.7513 26.1249 74.2239 26.4598 73.7768 26.8878C73.3485 27.2967 73.0089 27.7896 72.779 28.3358C72.5491 28.882 72.4339 29.4697 72.4405 30.0625V39.241C72.4526 39.6814 72.2897 40.1086 71.9878 40.4288C71.6704 40.7372 71.2445 40.908 70.8024 40.904C70.5823 40.915 70.3625 40.8782 70.1579 40.7962C69.9533 40.7142 69.7687 40.5889 69.6169 40.4288C69.3228 40.1052 69.168 39.6784 69.1859 39.241V17.1045C69.1772 16.6711 69.3399 16.2519 69.6385 15.9383C69.7887 15.7822 69.9699 15.6592 70.1703 15.5774C70.3707 15.4956 70.5861 15.4567 70.8024 15.4632C71.022 15.4563 71.2406 15.4949 71.4446 15.5767C71.6486 15.6585 71.8335 15.7816 71.9878 15.9383C72.2864 16.2519 72.4492 16.6711 72.4405 17.1045V25.7431C73.0571 24.8029 73.8835 24.0191 74.8544 23.4539C75.831 22.8247 76.9695 22.4945 78.1305 22.5037C82.1681 22.5037 84.1869 25.0233 84.1869 30.0625Z" fill="#EE3F36"/>
<path d="M87.5708 19.9984C87.4147 19.8546 87.2945 19.6762 87.2196 19.4774C87.1447 19.2786 87.1174 19.0651 87.1397 18.8538V18.2923C87.12 18.0761 87.1506 17.8582 87.2291 17.6559C87.3077 17.4535 87.432 17.2722 87.5923 17.1261C88.023 16.8749 88.5172 16.7549 89.0148 16.7806C89.5101 16.7374 90.0051 16.8671 90.4158 17.1477C90.568 17.2945 90.6855 17.4733 90.7601 17.6713C90.8346 17.8693 90.8643 18.0814 90.8468 18.2923V18.8538C90.8665 19.07 90.8359 19.2879 90.7574 19.4903C90.6789 19.6926 90.5546 19.874 90.3942 20.0201C89.9807 20.2931 89.486 20.4151 88.9933 20.3656C88.4908 20.4139 87.9874 20.284 87.5708 19.9984ZM90.1787 40.3641C89.8621 40.6664 89.4415 40.8351 89.0041 40.8351C88.5667 40.8351 88.146 40.6664 87.8294 40.3641C87.5275 40.0438 87.3647 39.6166 87.3768 39.1762V24.2962C87.368 24.0791 87.4034 23.8625 87.481 23.6596C87.5586 23.4567 87.6766 23.2718 87.8279 23.1161C87.9792 22.9605 88.1606 22.8374 88.3609 22.7544C88.5613 22.6713 88.7765 22.6301 88.9933 22.6332C89.4354 22.6292 89.8613 22.7999 90.1787 23.1084C90.4806 23.4286 90.6434 23.8558 90.6313 24.2962V39.1762C90.6434 39.6166 90.4806 40.0438 90.1787 40.3641Z" fill="#EE3F36"/>
<path d="M107.076 23.6915C108.358 24.4913 109.389 25.6364 110.051 26.9958C110.761 28.5016 111.129 30.1464 111.129 31.8118C111.129 33.4773 110.761 35.122 110.051 36.6278C109.383 37.9834 108.353 39.1271 107.076 39.9322C105.971 40.6406 104.703 41.0523 103.393 41.128C102.084 41.2036 100.776 40.9406 99.5975 40.3641C98.6432 39.8895 97.7932 39.2287 97.0973 38.4204V46.0656C97.1025 46.2822 97.0631 46.4975 96.9815 46.6982C96.8999 46.8989 96.778 47.0805 96.6232 47.2318C96.4714 47.3918 96.2869 47.5172 96.0823 47.5992C95.8777 47.6812 95.6578 47.7179 95.4377 47.7069C95.2265 47.7132 95.0163 47.6763 94.8199 47.5983C94.6235 47.5203 94.445 47.4029 94.2954 47.2534C94.141 47.0973 94.0195 46.9117 93.9381 46.7077C93.8566 46.5037 93.8169 46.2853 93.8212 46.0656V24.469C93.8081 24.022 93.9706 23.5877 94.2738 23.2596C94.4224 23.1012 94.6032 22.9768 94.804 22.8948C95.0049 22.8128 95.221 22.7752 95.4377 22.7844C95.6578 22.7735 95.8777 22.8102 96.0823 22.8922C96.2869 22.9742 96.4714 23.0995 96.6232 23.2596C96.7802 23.4182 96.9032 23.6073 96.9848 23.8152C97.0663 24.0232 97.1046 24.2457 97.0973 24.469V25.4624C97.7139 24.5914 98.5357 23.8866 99.4897 23.4107C100.518 22.8385 101.676 22.541 102.852 22.5469C104.341 22.5094 105.809 22.9072 107.076 23.6915ZM105.331 37.2974C106.17 36.7655 106.855 36.0204 107.314 35.1377C107.777 34.1209 108.017 33.0161 108.017 31.8982C108.017 30.7803 107.777 29.6755 107.314 28.6587C106.87 27.7365 106.185 26.9525 105.331 26.3911C104.482 25.8456 103.493 25.5604 102.486 25.5704C101.466 25.5493 100.462 25.827 99.5975 26.3695C98.7537 26.8964 98.0685 27.6428 97.6146 28.5291C97.1565 29.5474 96.9196 30.6516 96.9196 31.7686C96.9196 32.8856 97.1565 33.9898 97.6146 35.0081C98.0522 35.9341 98.7389 36.7194 99.5975 37.2758C100.466 37.8082 101.467 38.0851 102.486 38.0748C103.489 38.0978 104.478 37.8276 105.331 37.2974Z" fill="#EE3F36"/>
<path d="M129.147 30.0625C129.29 30.2116 129.401 30.3877 129.475 30.5805C129.549 30.7733 129.584 30.979 129.578 31.1855C129.584 31.3823 129.549 31.5782 129.475 31.7606C129.401 31.9429 129.289 32.1075 129.147 32.2437C128.842 32.5227 128.439 32.6701 128.026 32.6541H122.746V37.9237C122.754 38.1554 122.714 38.3862 122.628 38.6018C122.543 38.8173 122.414 39.0129 122.25 39.1763C122.087 39.347 121.889 39.4799 121.669 39.5657C121.449 39.6515 121.214 39.6881 120.978 39.673C120.747 39.6789 120.518 39.6377 120.303 39.5519C120.089 39.4661 119.894 39.3375 119.731 39.1738C119.567 39.0102 119.439 38.815 119.353 38.6001C119.268 38.3851 119.227 38.155 119.233 37.9237V32.6541H113.974C113.774 32.6634 113.574 32.6297 113.388 32.5552C113.202 32.4807 113.034 32.3671 112.896 32.2221C112.749 32.0796 112.633 31.9082 112.555 31.7187C112.477 31.5292 112.439 31.3256 112.443 31.1207C112.434 30.9203 112.468 30.7202 112.542 30.534C112.616 30.3477 112.73 30.1796 112.874 30.0409C113.174 29.7673 113.568 29.6202 113.974 29.6306H119.233V24.037C119.225 23.8053 119.265 23.5744 119.35 23.3589C119.435 23.1434 119.564 22.9478 119.728 22.7844C119.895 22.6268 120.092 22.5037 120.306 22.4222C120.521 22.3407 120.749 22.3023 120.978 22.3093C121.211 22.294 121.444 22.3278 121.662 22.4086C121.881 22.4894 122.08 22.6154 122.246 22.7783C122.413 22.9413 122.544 23.1376 122.63 23.3544C122.716 23.5713 122.755 23.8039 122.746 24.037V29.6306H128.026C128.442 29.6204 128.845 29.7757 129.147 30.0625Z" fill="#EE3F36"/>
<path d="M148.674 17.1045C148.977 17.4082 149.147 17.8199 149.147 18.2491C149.147 18.6784 148.977 19.09 148.674 19.3937C148.343 19.6729 147.921 19.8192 147.489 19.8041H141.389V39.0898C141.392 39.3113 141.349 39.5309 141.264 39.7352C141.179 39.9395 141.053 40.1241 140.893 40.2777C140.544 40.583 140.096 40.7512 139.633 40.7512C139.169 40.7512 138.721 40.583 138.372 40.2777C138.213 40.1241 138.086 39.9395 138.001 39.7352C137.916 39.5309 137.873 39.3113 137.876 39.0898V19.8041H131.884C131.449 19.8132 131.026 19.6591 130.699 19.3722C130.545 19.2214 130.424 19.0393 130.346 18.8382C130.268 18.637 130.234 18.4214 130.246 18.2059C130.238 18.0005 130.274 17.7957 130.352 17.6056C130.43 17.4154 130.549 17.2445 130.699 17.1045C130.858 16.9576 131.045 16.8438 131.248 16.7696C131.452 16.6955 131.668 16.6625 131.884 16.6726H147.575C147.983 16.6681 148.378 16.823 148.674 17.1045Z" fill="#EE3F36"/>
<path d="M163.503 23.022C163.662 23.1839 163.785 23.3766 163.867 23.5884C163.949 23.8001 163.986 24.0262 163.977 24.253V39.1763C163.983 39.3963 163.944 39.6152 163.863 39.8196C163.782 40.0241 163.659 40.2097 163.504 40.3654C163.349 40.521 163.164 40.6433 162.96 40.7247C162.755 40.8062 162.537 40.8452 162.317 40.8392C162.101 40.8485 161.885 40.8108 161.684 40.7288C161.483 40.6469 161.302 40.5224 161.154 40.3641C161.004 40.2066 160.888 40.0198 160.814 39.8153C160.74 39.6109 160.709 39.3933 160.723 39.1763V38.2908C160.06 39.1433 159.222 39.843 158.265 40.3425C157.249 40.9028 156.106 41.1927 154.946 41.1847C153.423 41.2096 151.925 40.7894 150.636 39.9753C149.352 39.1594 148.322 37.9999 147.661 36.6278C146.937 35.1184 146.561 33.465 146.561 31.7902C146.561 30.1154 146.937 28.462 147.661 26.9526C148.32 25.5865 149.342 24.4284 150.614 23.6051C151.856 22.81 153.3 22.3902 154.774 22.3957C155.944 22.3894 157.101 22.6478 158.158 23.1516C159.124 23.5963 159.979 24.2532 160.658 25.0737V24.253C160.639 23.809 160.793 23.3751 161.089 23.0436C161.237 22.8852 161.418 22.7608 161.619 22.6788C161.82 22.5968 162.036 22.5592 162.253 22.5685C162.481 22.5495 162.711 22.5802 162.927 22.6585C163.143 22.7368 163.339 22.8608 163.503 23.022ZM158.179 37.319C159.031 36.7613 159.711 35.9758 160.141 35.0513C160.605 34.0349 160.846 32.9299 160.846 31.8118C160.846 30.6937 160.605 29.5887 160.141 28.5723C159.699 27.6495 159.023 26.8598 158.179 26.2831C157.332 25.7149 156.332 25.4209 155.313 25.4408C154.298 25.4303 153.302 25.7155 152.446 26.2615C151.604 26.834 150.933 27.6253 150.506 28.5507C150.044 29.5679 149.805 30.6726 149.805 31.7902C149.805 32.9079 150.044 34.0125 150.506 35.0297C150.928 35.9527 151.6 36.7384 152.446 37.2974C153.296 37.8593 154.295 38.1527 155.313 38.1396C156.329 38.1659 157.33 37.8795 158.179 37.319Z" fill="#EE3F36"/>
<path d="M183.612 23.022C183.924 23.3546 184.095 23.7964 184.086 24.253V39.3706C184.14 41.0067 183.729 42.6245 182.901 44.0355C182.128 45.256 181.01 46.2184 179.689 46.7998C178.245 47.414 176.688 47.7157 175.12 47.6853C174.034 47.6651 172.954 47.5054 171.909 47.2102C171.061 47.0607 170.258 46.721 169.559 46.2167C168.848 45.8496 168.482 45.3961 168.482 44.8345C168.516 44.4702 168.678 44.1298 168.938 43.873C169.198 43.6162 169.54 43.4597 169.904 43.4308C170.229 43.4391 170.55 43.5049 170.852 43.6251C172.216 44.2316 173.675 44.5969 175.163 44.705C176.718 44.8251 178.26 44.3462 179.474 43.366C179.965 42.9044 180.35 42.3401 180.599 41.7131C180.849 41.0861 180.958 40.4116 180.918 39.7377V37.8804C180.35 38.8658 179.512 39.6677 178.504 40.1913C177.411 40.8282 176.169 41.1635 174.905 41.1631C173.383 41.1747 171.888 40.7555 170.594 39.9537C169.279 39.1427 168.213 37.9845 167.512 36.6062C166.774 35.1008 166.39 33.4459 166.39 31.7686C166.39 30.0913 166.774 28.4364 167.512 26.931C168.211 25.558 169.268 24.401 170.572 23.5835C171.865 22.7762 173.36 22.3566 174.883 22.3741C176.115 22.3625 177.33 22.6594 178.418 23.2379C179.421 23.7512 180.291 24.4904 180.961 25.3976V24.2962C180.948 23.8492 181.11 23.4149 181.414 23.0868C181.562 22.9284 181.743 22.804 181.944 22.722C182.145 22.64 182.361 22.6024 182.577 22.6117C182.96 22.6215 183.327 22.7669 183.612 23.022ZM178.181 37.3405C179.052 36.7868 179.753 36.0019 180.207 35.0729C180.716 34.0548 180.975 32.9291 180.961 31.7902C180.977 30.6579 180.719 29.5387 180.207 28.5291C179.748 27.5983 179.048 26.8078 178.181 26.2399C177.279 25.69 176.24 25.4057 175.185 25.4192C174.143 25.4056 173.118 25.6902 172.232 26.2399C171.358 26.8065 170.651 27.5968 170.184 28.5291C169.687 29.5431 169.436 30.6605 169.452 31.7902C169.433 32.9133 169.684 34.0245 170.184 35.0297C170.639 35.9701 171.349 36.7633 172.232 37.3189C173.112 37.8842 174.139 38.1771 175.185 38.1612C176.211 38.1588 177.217 37.875 178.094 37.3405H178.181Z" fill="#EE3F36"/>
</g>
<defs>
<clipPath id="clip0_4_30">
<rect width="184" height="56" fill="white"/>
</clipPath>
</defs>
</svg>
